<?xml version="1.0" encoding="UTF-8"?>
<!DOCTYPE svg PUBLIC "-//W3C//DTD SVG 1.1//EN" "http://www.w3.org/Graphics/SVG/1.1/DTD/svg11.dtd">
<svg xmlns="http://www.w3.org/2000/svg" version="1.1" width="500px" height="500px" style="shape-rendering:geometricPrecision; text-rendering:geometricPrecision; image-rendering:optimizeQuality; fill-rule:evenodd; clip-rule:evenodd" xmlns:xlink="http://www.w3.org/1999/xlink">
<g><path style="opacity:0.955" fill="#ff8a09" d="M 483.5,81.5 C 415.5,108.167 347.5,134.833 279.5,161.5C 263.619,157.946 247.953,153.613 232.5,148.5C 315.76,125.1 399.426,102.767 483.5,81.5 Z"/></g>
<g><path style="opacity:0.998" fill="#fe5702" d="M 483.5,83.5 C 484.167,83.5 484.833,83.5 485.5,83.5C 484.833,84.5 484.167,85.5 483.5,86.5C 449.73,118.769 416.396,151.603 383.5,185C 381.266,186.75 378.932,188.25 376.5,189.5C 363.167,185.834 349.834,182.167 336.5,178.5C 385.67,147.083 434.67,115.416 483.5,83.5 Z"/></g>
<g><path style="opacity:0.996" fill="#feaf0a" d="M 483.5,81.5 C 485.993,81.1307 486.66,81.7973 485.5,83.5C 484.833,83.5 484.167,83.5 483.5,83.5C 427.992,113.421 372.325,143.088 316.5,172.5C 304.167,169.167 291.833,165.833 279.5,162.5C 279.5,162.167 279.5,161.833 279.5,161.5C 347.5,134.833 415.5,108.167 483.5,81.5 Z"/></g>
<g><path style="opacity:0.961" fill="#fe8a09" d="M 358.5,283.5 C 362.182,262.772 366.182,242.106 370.5,221.5C 370.833,220.833 371.167,220.167 371.5,219.5C 410.052,176.113 447.718,131.946 484.5,87C 484.272,86.6012 483.938,86.4346 483.5,86.5C 484.167,85.5 484.833,84.5 485.5,83.5C 486.66,81.7973 485.993,81.1307 483.5,81.5C 485.6,79.7273 487.934,79.394 490.5,80.5C 446.725,148.402 402.725,216.069 358.5,283.5 Z"/></g>
<g><path style="opacity:0.997" fill="#feae0a" d="M 483.5,86.5 C 483.938,86.4346 484.272,86.6012 484.5,87C 447.718,131.946 410.052,176.113 371.5,219.5C 373.165,210.171 374.832,200.837 376.5,191.5C 376.5,190.833 376.5,190.167 376.5,189.5C 378.932,188.25 381.266,186.75 383.5,185C 416.396,151.603 449.73,118.769 483.5,86.5 Z"/></g>
<g><path style="opacity:0.992" fill="#fed40a" d="M 483.5,83.5 C 434.67,115.416 385.67,147.083 336.5,178.5C 336.167,178.5 335.833,178.5 335.5,178.5C 329.344,176.227 323.011,174.56 316.5,173.5C 316.5,173.167 316.5,172.833 316.5,172.5C 372.325,143.088 427.992,113.421 483.5,83.5 Z"/></g>
<g><path style="opacity:0.974" fill="#fda621" d="M 232.5,148.5 C 247.953,153.613 263.619,157.946 279.5,161.5C 279.5,161.833 279.5,162.167 279.5,162.5C 276.729,162.421 274.063,162.921 271.5,164C 222.282,182.9 173.282,202.067 124.5,221.5C 124.167,221.5 123.833,221.5 123.5,221.5C 123.167,221.5 122.833,221.5 122.5,221.5C 103.438,212.469 84.4376,203.136 65.5,193.5C 120.989,177.894 176.655,162.894 232.5,148.5 Z"/></g>
<g><path style="opacity:0.999" fill="#4435ba" d="M 279.5,162.5 C 291.833,165.833 304.167,169.167 316.5,172.5C 316.5,172.833 316.5,173.167 316.5,173.5C 270.674,197.912 225.007,222.579 179.5,247.5C 161.323,238.579 142.99,229.912 124.5,221.5C 173.282,202.067 222.282,182.9 271.5,164C 274.063,162.921 276.729,162.421 279.5,162.5 Z"/></g>
<g><path style="opacity:0.998" fill="#9a62f3" d="M 316.5,173.5 C 323.011,174.56 329.344,176.227 335.5,178.5C 281.791,213.527 227.791,248.194 173.5,282.5C 172.957,282.44 172.624,282.107 172.5,281.5C 175.09,270.217 177.423,258.883 179.5,247.5C 225.007,222.579 270.674,197.912 316.5,173.5 Z"/></g>
<g><path style="opacity:1" fill="#2563eb" d="M 335.5,178.5 C 335.833,178.5 336.167,178.5 336.5,178.5C 349.834,182.167 363.167,185.834 376.5,189.5C 376.5,190.167 376.5,190.833 376.5,191.5C 330.868,235.964 285.368,280.631 240,325.5C 239.536,326.094 239.369,326.761 239.5,327.5C 239.167,327.5 238.833,327.5 238.5,327.5C 238.389,326.883 238.056,326.383 237.5,326C 214.222,319.847 190.889,314.014 167.5,308.5C 168.612,299.601 170.612,290.934 173.5,282.5C 227.791,248.194 281.791,213.527 335.5,178.5 Z"/></g>
<g><path style="opacity:1" fill="#78a3ff" d="M 376.5,191.5 C 374.832,200.837 373.165,210.171 371.5,219.5C 371.167,220.167 370.833,220.833 370.5,221.5C 337.5,259.5 304.5,297.5 271.5,335.5C 260.74,333.143 250.073,330.477 239.5,327.5C 239.369,326.761 239.536,326.094 240,325.5C 285.368,280.631 330.868,235.964 376.5,191.5 Z"/></g>
<g><path style="opacity:0.983" fill="#7736f1" d="M 123.5,221.5 C 123.833,221.5 124.167,221.5 124.5,221.5C 142.99,229.912 161.323,238.579 179.5,247.5C 177.423,258.883 175.09,270.217 172.5,281.5C 172.624,282.107 172.957,282.44 173.5,282.5C 170.612,290.934 168.612,299.601 167.5,308.5C 167.167,308.5 166.833,308.5 166.5,308.5C 127.271,298.611 88.2714,288.278 49.5,277.5C 73.883,258.449 98.5497,239.783 123.5,221.5 Z"/></g>
<g><path style="opacity:0.976" fill="#3d77f3" d="M 370.5,221.5 C 366.182,242.106 362.182,262.772 358.5,283.5C 333.89,321.95 309.056,360.284 284,398.5C 278.755,377.777 274.589,356.777 271.5,335.5C 304.5,297.5 337.5,259.5 370.5,221.5 Z"/></g>
<g><path style="opacity:1" fill="#9a62f3" d="M 122.5,221.5 C 122.833,221.5 123.167,221.5 123.5,221.5C 98.5497,239.783 73.883,258.449 49.5,277.5C 35.6143,274.612 21.9477,270.945 8.5,266.5C 46.2715,250.949 84.2715,235.949 122.5,221.5 Z"/></g>
<g><path style="opacity:0.971" fill="#09275e" d="M 166.5,308.5 C 166.833,308.5 167.167,308.5 167.5,308.5C 190.889,314.014 214.222,319.847 237.5,326C 238.056,326.383 238.389,326.883 238.5,327.5C 215.527,350.139 192.527,372.806 169.5,395.5C 167.152,376.2 164.985,356.866 163,337.5C 162.878,335.563 162.045,334.23 160.5,333.5C 162.5,325.167 164.5,316.833 166.5,308.5 Z"/></g>
<g><path style="opacity:0.965" fill="#78a3ff" d="M 160.5,333.5 C 162.045,334.23 162.878,335.563 163,337.5C 164.985,356.866 167.152,376.2 169.5,395.5C 161.768,403.547 153.768,411.38 145.5,419C 144.4,419.432 143.733,418.932 143.5,417.5C 149.426,389.539 155.092,361.539 160.5,333.5 Z"/></g>
</svg>
