<svg id="visual" viewBox="0 0 960 540" width="960" height="540" xmlns="http://www.w3.org/2000/svg" xmlns:xlink="http://www.w3.org/1999/xlink" version="1.1"><rect x="0" y="0" width="960" height="540" fill="#7736f1"></rect><path d="M0 177L20 170.3C40 163.7 80 150.3 120 148.5C160 146.7 200 156.3 240 153.3C280 150.3 320 134.7 360 139.8C400 145 440 171 480 186.7C520 202.3 560 207.7 600 204.3C640 201 680 189 720 180.5C760 172 800 167 840 164.2C880 161.3 920 160.7 940 160.3L960 160L960 541L940 541C920 541 880 541 840 541C800 541 760 541 720 541C680 541 640 541 600 541C560 541 520 541 480 541C440 541 400 541 360 541C320 541 280 541 240 541C200 541 160 541 120 541C80 541 40 541 20 541L0 541Z" fill="#4403bd"></path><path d="M0 224L20 239.2C40 254.3 80 284.7 120 296.5C160 308.3 200 301.7 240 296.8C280 292 320 289 360 280.2C400 271.3 440 256.7 480 256.2C520 255.7 560 269.3 600 278.8C640 288.3 680 293.7 720 285.7C760 277.7 800 256.3 840 246.8C880 237.3 920 239.7 940 240.8L960 242L960 541L940 541C920 541 880 541 840 541C800 541 760 541 720 541C680 541 640 541 600 541C560 541 520 541 480 541C440 541 400 541 360 541C320 541 280 541 240 541C200 541 160 541 120 541C80 541 40 541 20 541L0 541Z" fill="#351c9b"></path><path d="M0 417L20 406.3C40 395.7 80 374.3 120 375C160 375.7 200 398.3 240 410.7C280 423 320 425 360 423.2C400 421.3 440 415.7 480 417.5C520 419.3 560 428.7 600 427.5C640 426.3 680 414.7 720 406C760 397.3 800 391.7 840 397.7C880 403.7 920 421.3 940 430.2L960 439L960 541L940 541C920 541 880 541 840 541C800 541 760 541 720 541C680 541 640 541 600 541C560 541 520 541 480 541C440 541 400 541 360 541C320 541 280 541 240 541C200 541 160 541 120 541C80 541 40 541 20 541L0 541Z" fill="#2d2378"></path></svg>