<svg id="visual" viewBox="0 0 960 540" width="960" height="540" xmlns="http://www.w3.org/2000/svg" xmlns:xlink="http://www.w3.org/1999/xlink" version="1.1"><path d="M0 336L16 296.3C32 256.7 64 177.3 96 148.5C128 119.7 160 141.3 192 157.5C224 173.7 256 184.3 288 188C320 191.7 352 188.3 384 207.3C416 226.3 448 267.7 480 260.3C512 253 544 197 576 184.3C608 171.7 640 202.3 672 197.8C704 193.3 736 153.7 768 170.8C800 188 832 262 864 273.8C896 285.7 928 235.3 944 210.2L960 185L960 0L944 0C928 0 896 0 864 0C832 0 800 0 768 0C736 0 704 0 672 0C640 0 608 0 576 0C544 0 512 0 480 0C448 0 416 0 384 0C352 0 320 0 288 0C256 0 224 0 192 0C160 0 128 0 96 0C64 0 32 0 16 0L0 0Z" fill="#833df4"></path><path d="M0 401L16 383C32 365 64 329 96 314.5C128 300 160 307 192 309.7C224 312.3 256 310.7 288 299.8C320 289 352 269 384 279.8C416 290.7 448 332.3 480 342.3C512 352.3 544 330.7 576 331.5C608 332.3 640 355.7 672 335.8C704 316 736 253 768 259.3C800 265.7 832 341.3 864 362C896 382.7 928 348.3 944 331.2L960 314L960 183L944 208.2C928 233.3 896 283.7 864 271.8C832 260 800 186 768 168.8C736 151.7 704 191.3 672 195.8C640 200.3 608 169.7 576 182.3C544 195 512 251 480 258.3C448 265.7 416 224.3 384 205.3C352 186.3 320 189.7 288 186C256 182.3 224 171.7 192 155.5C160 139.3 128 117.7 96 146.5C64 175.3 32 254.7 16 294.3L0 334Z" fill="#7234dd"></path><path d="M0 541L16 541C32 541 64 541 96 541C128 541 160 541 192 541C224 541 256 541 288 541C320 541 352 541 384 541C416 541 448 541 480 541C512 541 544 541 576 541C608 541 640 541 672 541C704 541 736 541 768 541C800 541 832 541 864 541C896 541 928 541 944 541L960 541L960 312L944 329.2C928 346.3 896 380.7 864 360C832 339.3 800 263.7 768 257.3C736 251 704 314 672 333.8C640 353.7 608 330.3 576 329.5C544 328.7 512 350.3 480 340.3C448 330.3 416 288.7 384 277.8C352 267 320 287 288 297.8C256 308.7 224 310.3 192 307.7C160 305 128 298 96 312.5C64 327 32 363 16 381L0 399Z" fill="#622bc7"></path></svg>